<svg id="Capa_1" enable-background="new 0 0 512.003 512.003" height="512" viewBox="0 0 512.003 512.003" width="512"  version="1.1" xmlns="http://www.w3.org/2000/svg" xmlns:xlink="http://www.w3.org/1999/xlink"><g><g><g>
    
    
    <path class="wolke" d="m399.953 335.213c0-73.005-59.182-132.187-132.187-132.187-52.279 0-97.465 30.352-118.911 74.393-12.162-5.325-25.588-8.299-39.714-8.299-54.754-.001-99.141 44.386-99.141 99.14s44.387 99.141 99.141 99.141h290.812c36.503 0 66.094-29.591 66.094-66.094s-29.592-66.094-66.094-66.094z" fill="#80b5ff">
            <animate 
                     id="anim1"
                     attributeType="XML" 
                     attributeName="fill-opacity"
                     begin="0s"
                     from="0"
                     to="1"
                     dur="1s" 
                     repeatCount="1" />
    </path>  
    
    <path class="sonne" d="m389.65 283.973c-20.01-47.56-67.05-80.95-121.88-80.95-5.87 0-11.65.38-17.32 1.13-.53-40.95 26.23-78.84 67.5-90.65 49.44-14.15 101 14.45 115.15 63.9 12.07 42.15-6.94 85.83-43.45 106.57z" fill="#ffbe3d" >
            <animate 
                     id="anim1"
                     attributeType="XML" 
                     attributeName="fill-opacity"
                     begin="0s"
                     from ="0"
                     to = "1"
                     dur="2.5s" 
                     repeatCount="1" 
                     fill="freeze"
                     />
    </path>      
    

    

    
    </g></g>
    
    
    <g>
    
    <path fill="#ffd37a" d="m297.067 76.886c1.257 4.39 5.26 7.25 9.609 7.25.911 0 1.838-.125 2.757-.389 5.31-1.52 8.382-7.057 6.862-12.366l-8.453-29.528c-1.521-5.31-7.061-8.382-12.366-6.861-5.31 1.52-8.382 7.057-6.862 12.366z">
            <animate 
                     id="anim1"
                     attributeType="XML" 
                     attributeName="fill-opacity"
                     begin="0s"
                     from="0"
                     to="1"
                     dur="4s" 
                     repeatCount="1" />
    </path>    
    <path fill="#ffd37a" d="m194.639 131.818 26.856 14.902c1.537.853 3.202 1.258 4.843 1.258 3.516 0 6.927-1.858 8.753-5.15 2.68-4.829.937-10.916-3.892-13.596l-26.856-14.902c-4.83-2.68-10.917-.936-13.596 3.892-2.68 4.829-.937 10.916 3.892 13.596z">
            <animate 
                     id="anim1"
                     attributeType="XML" 
                     attributeName="fill-opacity"
                     begin="0s"
                     from="0"
                     to="1"
                     dur="4s" 
                     repeatCount="1" />
    </path>    
    <path fill="#ffd37a" d="m492.52 274.233-26.856-14.902c-4.828-2.68-10.916-.938-13.596 3.892-2.68 4.829-.938 10.917 3.893 13.596l26.856 14.902c1.537.853 3.201 1.258 4.843 1.258 3.516 0 6.926-1.858 8.753-5.15 2.679-4.829.937-10.916-3.893-13.596z">
            <animate 
                     id="anim1"
                     attributeType="XML" 
                     attributeName="fill-opacity"
                     begin="0s"
                     from="0"
                     to="1"
                     dur="4s" 
                     repeatCount="1" />
    </path>    
    <path fill="#ffd37a" d="m511.614 154.922c-1.52-5.311-7.062-8.382-12.366-6.862l-29.528 8.453c-5.31 1.52-8.382 7.056-6.862 12.366 1.257 4.391 5.26 7.251 9.609 7.251.911 0 1.838-.126 2.757-.389l29.528-8.453c5.309-1.52 8.382-7.056 6.862-12.366z">
            <animate 
                     id="anim1"
                     attributeType="XML" 
                     attributeName="fill-opacity"
                     begin="0s"
                     from="0"
                     to="1"
                     dur="4s" 
                     repeatCount="1" />
    </path>    
    <path fill="#ffd37a" d="m403.777 94.538c1.537.853 3.201 1.258 4.843 1.258 3.516 0 6.926-1.858 8.753-5.15l14.902-26.857c2.68-4.83.937-10.917-3.893-13.596-4.828-2.68-10.915-.937-13.596 3.892l-14.902 26.857c-2.679 4.829-.936 10.916 3.893 13.596z">
            <animate 
                     id="anim1"
                     attributeType="XML" 
                     attributeName="fill-opacity"
                     begin="0s"
                     from="0"
                     to="1"
                     dur="4s" 
                     repeatCount="1" />
    </path>    
    
    
    
</g></g></svg>